<?xml version="1.0" encoding="UTF-8"?>
<svg version="1.1" xmlns="http://www.w3.org/2000/svg" width="500" height="500">
<path d="M0 0 C1.65686267 -0.00435423 3.31372334 -0.00953974 4.97058105 -0.01548767 C9.44588142 -0.02881241 13.921097 -0.02946365 18.39641333 -0.02692437 C22.14366582 -0.02585022 25.89090147 -0.03074934 29.63815033 -0.03552979 C38.4843658 -0.0466024 47.33053878 -0.04707504 56.17675781 -0.04101562 C65.27788057 -0.03497711 74.37884868 -0.04728894 83.47994506 -0.06858569 C91.31722203 -0.0862452 99.15444996 -0.09219621 106.99174607 -0.08894795 C111.66230424 -0.08714189 116.33275208 -0.08970329 121.00329208 -0.10366249 C125.39797686 -0.11630726 129.79242186 -0.11423437 134.18710327 -0.1012516 C135.79140431 -0.09890068 137.39572257 -0.10156666 139.00000381 -0.10987473 C150.42828617 -0.1647486 161.83065719 0.16936023 171.63720703 6.7746582 C172.98878906 7.65637695 172.98878906 7.65637695 174.36767578 8.5559082 C176.44970703 10.2746582 176.44970703 10.2746582 177.44970703 13.2746582 C178.10970703 13.2746582 178.76970703 13.2746582 179.44970703 13.2746582 C180.63330078 14.6730957 180.63330078 14.6730957 181.88720703 16.6496582 C182.29841797 17.27614258 182.70962891 17.90262695 183.13330078 18.5480957 C187.80894019 28.23235774 187.88038032 37.70314203 187.83789062 48.22387695 C187.84196198 49.92339413 187.84730701 51.62290865 187.8538208 53.32241821 C187.86743317 57.91332687 187.862221 62.50403203 187.85268354 67.094944 C187.84505531 71.91356174 187.85214131 76.73216278 187.85684204 81.55078125 C187.86229041 89.640738 187.85513214 97.73061241 187.84082031 105.82055664 C187.82449558 115.15575732 187.82978474 124.49076138 187.84629953 133.8259573 C187.85994062 141.86023604 187.86182125 149.89445582 187.85398352 157.92874241 C187.84932141 162.71883425 187.84864176 167.50883387 187.85859299 172.29891968 C187.86729864 176.80359413 187.86117539 181.30801662 187.84391022 185.81266403 C187.83996452 187.45972654 187.84104632 189.10681048 187.84769821 190.75386429 C187.88534815 201.02838629 187.73024128 210.99773142 181.88720703 219.8996582 C181.47341797 220.55192383 181.05962891 221.20418945 180.63330078 221.8762207 C180.24271484 222.33770508 179.85212891 222.79918945 179.44970703 223.2746582 C178.78970703 223.2746582 178.12970703 223.2746582 177.44970703 223.2746582 C177.44970703 223.9346582 177.44970703 224.5946582 177.44970703 225.2746582 C176.78970703 225.2746582 176.12970703 225.2746582 175.44970703 225.2746582 C175.44970703 225.9346582 175.44970703 226.5946582 175.44970703 227.2746582 C173.64892578 228.67700195 173.64892578 228.67700195 171.13720703 230.2121582 C169.93644531 230.96819336 169.93644531 230.96819336 168.71142578 231.73950195 C158.56770716 236.51373119 148.5291996 236.70293021 137.5546875 236.64697266 C135.87310563 236.64940504 134.19152521 236.65312869 132.50994873 236.65803528 C127.9728721 236.66738527 123.43601342 236.6580695 118.89895391 236.64470315 C114.13593385 236.63332782 109.37292356 236.63750075 104.6098938 236.63945007 C96.61586985 236.64033096 88.62193103 236.62929426 80.62792969 236.61083984 C71.40121545 236.58966091 62.1746257 236.58616669 52.94789207 236.5924018 C44.04877264 236.59810633 35.14969679 236.59243789 26.25058365 236.58122826 C22.47330032 236.57659818 18.69604378 236.57570149 14.91875839 236.5778141 C10.46828652 236.57970481 6.01794045 236.57153323 1.56749725 236.55575371 C-0.0606344 236.55153025 -1.68877887 236.55064718 -3.3169136 236.55344391 C-13.46320212 236.56822238 -22.90875714 236.57576189 -32.11279297 231.6496582 C-32.95970703 231.20364258 -33.80662109 230.75762695 -34.67919922 230.2980957 C-35.29666016 229.96036133 -35.91412109 229.62262695 -36.55029297 229.2746582 C-36.55029297 228.6146582 -36.55029297 227.9546582 -36.55029297 227.2746582 C-37.44748047 226.88600586 -37.44748047 226.88600586 -38.36279297 226.48950195 C-44.46363728 223.10135449 -47.52807563 215.95426404 -49.7308197 209.62849617 C-51.39078221 202.83480869 -51.10472809 195.88698574 -51.06787109 188.93652344 C-51.07330068 187.20729994 -51.08042801 185.47808107 -51.08911133 183.74887085 C-51.10724682 179.08152746 -51.10031818 174.41454029 -51.08759499 169.74719119 C-51.07741802 164.847163 -51.08687349 159.94716388 -51.09313965 155.0471344 C-51.10040174 146.82189497 -51.09086546 138.59679956 -51.07177734 130.37158203 C-51.05000415 120.88010005 -51.05706904 111.38896174 -51.07908297 101.89748806 C-51.09726937 93.72729642 -51.09977968 85.55720788 -51.08932829 77.38700253 C-51.08311209 72.5164175 -51.0822061 67.64599372 -51.09547424 62.77541924 C-51.10707968 58.19597126 -51.09892181 53.61696399 -51.07589722 49.03756332 C-51.07063541 47.36308967 -51.07208029 45.68857854 -51.08094788 44.0141201 C-51.1402 31.68317952 -49.90418357 20.74345334 -40.80029297 11.49731445 C-28.75247772 0.36720388 -15.77044611 -0.02751261 0 0 Z M139.44970703 44.2121582 C134.62907923 48.1849721 134.62907923 48.1849721 132.44970703 49.2746582 C132.44970703 49.9346582 132.44970703 50.5946582 132.44970703 51.2746582 C130.46970703 51.9346582 128.48970703 52.5946582 126.44970703 53.2746582 C126.44970703 53.9346582 126.44970703 54.5946582 126.44970703 55.2746582 C125.78970703 55.2746582 125.12970703 55.2746582 124.44970703 55.2746582 C124.44970703 55.9346582 124.44970703 56.5946582 124.44970703 57.2746582 C123.66595703 57.5634082 122.88220703 57.8521582 122.07470703 58.1496582 C119.35299071 59.12378074 119.35299071 59.12378074 117.44970703 61.2746582 C117.1508884 63.66662444 117.1508884 63.66662444 117.209198 66.48843384 C117.20644867 67.59343735 117.20369934 68.69844086 117.2008667 69.83692932 C117.20805725 71.05468552 117.2152478 72.27244171 117.22265625 73.52709961 C117.2223642 74.80510941 117.22207214 76.0831192 117.22177124 77.39985657 C117.22119605 80.91001264 117.23297713 84.42003278 117.24691916 87.93015718 C117.25939889 91.59636533 117.26059483 95.26257638 117.26296997 98.92880249 C117.26919287 105.87383722 117.2856146 112.81880918 117.30566895 119.76381624 C117.3280028 127.66938657 117.33901504 135.57495985 117.34905982 143.48055387 C117.36998017 159.74529787 117.40666645 176.0099554 117.44970703 192.2746582 C127.01970703 192.2746582 136.58970703 192.2746582 146.44970703 192.2746582 C146.44970703 142.1146582 146.44970703 91.9546582 146.44970703 40.2746582 C143.31373556 40.2746582 141.82058347 42.25136068 139.44970703 44.2121582 Z M91.38720703 80.1496582 C90.65373047 80.68333008 89.92025391 81.21700195 89.16455078 81.7668457 C88.59865234 82.26442383 88.03275391 82.76200195 87.44970703 83.2746582 C87.44970703 83.9346582 87.44970703 84.5946582 87.44970703 85.2746582 C86.73427734 85.5324707 86.01884766 85.7902832 85.28173828 86.0559082 C82.27810592 87.34850585 79.81465331 88.9024291 77.13720703 90.7746582 C76.25419922 91.3830957 75.37119141 91.9915332 74.46142578 92.6184082 C73.79755859 93.1649707 73.13369141 93.7115332 72.44970703 94.2746582 C72.44970703 94.9346582 72.44970703 95.5946582 72.44970703 96.2746582 C71.87220703 96.5427832 71.29470703 96.8109082 70.69970703 97.0871582 C69.95720703 97.4790332 69.21470703 97.8709082 68.44970703 98.2746582 C67.75266663 98.61483475 67.05562622 98.95501129 66.33746338 99.30549622 C63.3677239 102.40329965 63.9261021 105.90842461 63.99560547 109.96875 C63.99502136 110.856763 63.99443726 111.744776 63.99383545 112.65969849 C63.99662467 115.5981541 64.02775614 118.53559832 64.05908203 121.47387695 C64.06654144 123.50982611 64.07223579 125.54578244 64.07623291 127.58174133 C64.09151281 132.9429605 64.1308151 138.30374687 64.17504883 143.66479492 C64.21595064 149.13429916 64.23423305 154.60387327 64.25439453 160.07348633 C64.29730704 170.80743113 64.36767633 181.54094099 64.44970703 192.2746582 C75.00970703 192.2746582 85.56970703 192.2746582 96.44970703 192.2746582 C96.44970703 154.3246582 96.44970703 116.3746582 96.44970703 77.2746582 C94.4991052 77.2746582 92.8895231 79.04213066 91.38720703 80.1496582 Z M38.88720703 120.2121582 C35.60718735 123.19591805 35.60718735 123.19591805 33.44970703 124.2746582 C33.44970703 124.9346582 33.44970703 125.5946582 33.44970703 126.2746582 C32.76908203 126.5015332 32.08845703 126.7284082 31.38720703 126.9621582 C27.75083614 128.58691967 24.4214144 130.60269077 21.44970703 133.2746582 C21.44970703 133.9346582 21.44970703 134.5946582 21.44970703 135.2746582 C20.45970703 135.2746582 19.46970703 135.2746582 18.44970703 135.2746582 C18.44970703 135.9346582 18.44970703 136.5946582 18.44970703 137.2746582 C17.70720703 137.5221582 16.96470703 137.7696582 16.19970703 138.0246582 C12.92228479 139.51439559 11.55802501 140.31879474 9.44970703 143.2746582 C8.87058218 146.89197724 8.96155698 150.47465503 9.02392578 154.13012695 C9.0272139 155.18750565 9.03050201 156.24488434 9.03388977 157.33430481 C9.04430487 159.56603156 9.06424496 161.7977313 9.09301758 164.02929688 C9.13717334 167.45954118 9.15446364 170.88908651 9.16650391 174.31958008 C9.17992417 176.48560589 9.19484608 178.65162302 9.21142578 180.81762695 C9.21881271 181.84985886 9.22619965 182.88209076 9.23381042 183.94560242 C9.24664566 184.89361221 9.2594809 185.84162201 9.27270508 186.81835938 C9.28254929 187.65678879 9.29239349 188.4952182 9.30253601 189.35905457 C9.24134091 191.28324658 9.24134091 191.28324658 10.44970703 192.2746582 C12.95894857 192.37553032 15.44007087 192.41437853 17.94970703 192.4074707 C19.07602539 192.40890579 19.07602539 192.40890579 20.22509766 192.41036987 C21.8155933 192.41105158 23.40609171 192.40919792 24.99658203 192.4050293 C27.43935358 192.39968087 29.88194124 192.40497454 32.32470703 192.41137695 C33.86637411 192.41071617 35.40804107 192.409435 36.94970703 192.4074707 C37.68511719 192.40949493 38.42052734 192.41151917 39.17822266 192.41360474 C42.60217045 192.70522333 42.60217045 192.70522333 45.44970703 191.2746582 C45.54414038 188.97411985 45.56712831 186.67063647 45.56323242 184.36816406 C45.56337845 183.64625381 45.56352448 182.92434357 45.56367493 182.18055725 C45.56297572 179.78350873 45.55518298 177.38653698 45.54736328 174.98950195 C45.54549913 173.33183332 45.54407521 171.67416413 45.54307556 170.01649475 C45.53925016 165.64511606 45.52941968 161.27377039 45.51837158 156.90240479 C45.50815795 152.44511359 45.50357804 147.98781709 45.49853516 143.53051758 C45.48779743 134.77854927 45.47072074 126.02660784 45.44970703 117.2746582 C41.87984547 117.2746582 41.42875795 117.8792011 38.88720703 120.2121582 Z " fill="#FAFAFA" transform="translate(181.55029296875,131.725341796875)"/>
<path d="M0 0 C1.32 0 2.64 0 4 0 C4.02332739 20.06183326 4.04097839 40.12366378 4.05181217 60.18550777 C4.05697547 69.49989716 4.06401881 78.81427813 4.07543945 88.12866211 C4.08538526 96.2440536 4.09185318 104.359439 4.09408849 112.47483641 C4.09539578 116.77459788 4.09848274 121.07434192 4.10573006 125.37409782 C4.11248865 129.41642842 4.11461729 133.45873432 4.11310768 137.50107002 C4.11338408 138.98904174 4.11539016 140.47701423 4.11920547 141.96498108 C4.12414014 143.98775138 4.12239816 146.01053476 4.12025452 148.03330994 C4.12117631 149.1680371 4.1220981 150.30276426 4.12304783 151.4718771 C4 154 4 154 3 155 C-7.23 155 -17.46 155 -28 155 C-28 111.11 -28 67.22 -28 22 C-27.67 22 -27.34 22 -27 22 C-27 65.23 -27 108.46 -27 153 C-17.43 153 -7.86 153 2 153 C2 102.84 2 52.68 2 1 C1.34 0.67 0.68 0.34 0 0 Z " fill="#5E5C5B" transform="translate(326,171)"/>
<path d="M0 0 C0.66 0.33 1.32 0.66 2 1 C1.67 31.03 1.34 61.06 1 92 C11.56 92 22.12 92 33 92 C33 69.56 33 47.12 33 24 C33.33 24 33.66 24 34 24 C34.02312566 32.97920777 34.04091623 41.95840537 34.05181217 50.93763638 C34.05704051 55.10662828 34.06413726 59.27559987 34.07543945 63.44458008 C34.08627008 67.46457686 34.09227721 71.48455405 34.09487724 75.50456429 C34.09673118 77.04162975 34.10035119 78.57869409 34.10573006 80.11575127 C34.11294284 82.26135487 34.11399084 84.40687655 34.11352539 86.55249023 C34.115746 87.77604721 34.11796661 88.99960419 34.12025452 90.26023865 C34 93 34 93 33 94 C30.56339554 94.10082764 28.15575299 94.13972603 25.71875 94.1328125 C24.99006714 94.13376923 24.26138428 94.13472595 23.51062012 94.13571167 C21.9672029 94.13639335 20.42378283 94.13453988 18.88037109 94.13037109 C16.510026 94.12502262 14.13987041 94.13031642 11.76953125 94.13671875 C10.27343708 94.13605797 8.77734303 94.1347768 7.28125 94.1328125 C6.21094543 94.13584885 6.21094543 94.13584885 5.11901855 94.13894653 C0.11495191 94.11495191 0.11495191 94.11495191 -1 93 C-1.10055113 90.14445419 -1.13615544 87.31305977 -1.12939453 84.45703125 C-1.13114685 83.56116302 -1.13289917 82.6652948 -1.13470459 81.74227905 C-1.13912447 78.76566663 -1.13618464 75.78911308 -1.1328125 72.8125 C-1.1334855 70.75366199 -1.13445549 68.69482406 -1.13571167 66.63598633 C-1.13718883 62.31493373 -1.13503351 57.99390177 -1.13037109 53.67285156 C-1.1246738 48.12063454 -1.12795271 42.56846586 -1.13394356 37.01625061 C-1.13754869 32.76305779 -1.13641081 28.50987651 -1.13381577 24.25668335 C-1.13314636 22.20885207 -1.13397538 20.16101977 -1.13629532 18.1131897 C-1.13882106 15.25642092 -1.13498236 12.39973157 -1.12939453 9.54296875 C-1.13141876 8.68786713 -1.13344299 7.8327655 -1.13552856 6.95175171 C-1.11426239 1.11426239 -1.11426239 1.11426239 0 0 Z " fill="#A7A4A2" transform="translate(245,232)"/>
<path d="M0 0 C0.66 0.33 1.32 0.66 2 1 C-0.43372175 3.53107062 -2.96461037 5.95128252 -5.5625 8.3125 C-6.43068359 9.11107422 -6.43068359 9.11107422 -7.31640625 9.92578125 C-7.87199219 10.28027344 -8.42757812 10.63476562 -9 11 C-9.99 10.67 -10.98 10.34 -12 10 C-4.40952513 2.01578292 -4.40952513 2.01578292 0 0 Z " fill="#AFAEAE" transform="translate(150,136)"/>
<path d="" fill="#000000" transform="translate(0,0)"/>
<path d="" fill="#000000" transform="translate(0,0)"/>
<path d="" fill="#000000" transform="translate(0,0)"/>
<path d="" fill="#000000" transform="translate(0,0)"/>
<path d="" fill="#000000" transform="translate(0,0)"/>
<path d="" fill="#000000" transform="translate(0,0)"/>
<path d="" fill="#000000" transform="translate(0,0)"/>
<path d="" fill="#000000" transform="translate(0,0)"/>
<path d="" fill="#000000" transform="translate(0,0)"/>
<path d="" fill="#000000" transform="translate(0,0)"/>
<path d="" fill="#000000" transform="translate(0,0)"/>
<path d="" fill="#000000" transform="translate(0,0)"/>
<path d="" fill="#000000" transform="translate(0,0)"/>
<path d="" fill="#000000" transform="translate(0,0)"/>
<path d="" fill="#000000" transform="translate(0,0)"/>
<path d="" fill="#000000" transform="translate(0,0)"/>
<path d="" fill="#000000" transform="translate(0,0)"/>
<path d="" fill="#000000" transform="translate(0,0)"/>
<path d="" fill="#000000" transform="translate(0,0)"/>
<path d="" fill="#000000" transform="translate(0,0)"/>
<path d="" fill="#000000" transform="translate(0,0)"/>
<path d="" fill="#000000" transform="translate(0,0)"/>
<path d="" fill="#000000" transform="translate(0,0)"/>
<path d="" fill="#000000" transform="translate(0,0)"/>
<path d="" fill="#000000" transform="translate(0,0)"/>
<path d="" fill="#000000" transform="translate(0,0)"/>
<path d="" fill="#000000" transform="translate(0,0)"/>
<path d="" fill="#000000" transform="translate(0,0)"/>
<path d="" fill="#000000" transform="translate(0,0)"/>
<path d="" fill="#000000" transform="translate(0,0)"/>
<path d="" fill="#000000" transform="translate(0,0)"/>
<path d="" fill="#000000" transform="translate(0,0)"/>
<path d="" fill="#000000" transform="translate(0,0)"/>
<path d="" fill="#000000" transform="translate(0,0)"/>
<path d="" fill="#000000" transform="translate(0,0)"/>
<path d="" fill="#000000" transform="translate(0,0)"/>
<path d="" fill="#000000" transform="translate(0,0)"/>
<path d="" fill="#000000" transform="translate(0,0)"/>
<path d="" fill="#000000" transform="translate(0,0)"/>
<path d="" fill="#000000" transform="translate(0,0)"/>
<path d="" fill="#000000" transform="translate(0,0)"/>
<path d="" fill="#000000" transform="translate(0,0)"/>
<path d="" fill="#000000" transform="translate(0,0)"/>
<path d="" fill="#000000" transform="translate(0,0)"/>
<path d="" fill="#000000" transform="translate(0,0)"/>
<path d="" fill="#000000" transform="translate(0,0)"/>
<path d="" fill="#000000" transform="translate(0,0)"/>
<path d="" fill="#000000" transform="translate(0,0)"/>
<path d="" fill="#000000" transform="translate(0,0)"/>
<path d="" fill="#000000" transform="translate(0,0)"/>
<path d="" fill="#000000" transform="translate(0,0)"/>
<path d="" fill="#000000" transform="translate(0,0)"/>
<path d="" fill="#000000" transform="translate(0,0)"/>
<path d="" fill="#000000" transform="translate(0,0)"/>
<path d="" fill="#000000" transform="translate(0,0)"/>
<path d="" fill="#000000" transform="translate(0,0)"/>
<path d="" fill="#000000" transform="translate(0,0)"/>
<path d="" fill="#000000" transform="translate(0,0)"/>
<path d="" fill="#000000" transform="translate(0,0)"/>
<path d="" fill="#000000" transform="translate(0,0)"/>
<path d="" fill="#000000" transform="translate(0,0)"/>
<path d="" fill="#000000" transform="translate(0,0)"/>
<path d="" fill="#000000" transform="translate(0,0)"/>
<path d="" fill="#000000" transform="translate(0,0)"/>
<path d="" fill="#000000" transform="translate(0,0)"/>
<path d="" fill="#000000" transform="translate(0,0)"/>
<path d="" fill="#000000" transform="translate(0,0)"/>
<path d="" fill="#000000" transform="translate(0,0)"/>
<path d="" fill="#000000" transform="translate(0,0)"/>
<path d="" fill="#000000" transform="translate(0,0)"/>
<path d="" fill="#000000" transform="translate(0,0)"/>
<path d="" fill="#000000" transform="translate(0,0)"/>
</svg>
